<?xml version="1.0" encoding="utf-8"?>
<!-- Generator: Adobe Illustrator 22.1.0, SVG Export Plug-In . SVG Version: 6.00 Build 0)  -->
<svg version="1.1" id="Layer_1" xmlns="http://www.w3.org/2000/svg" xmlns:xlink="http://www.w3.org/1999/xlink" x="0px" y="0px"
	 viewBox="0 0 130 130" style="enable-background:new 0 0 130 130;" xml:space="preserve">
<style type="text/css">
	.st0{fill:none;stroke:#FFFFFF;stroke-width:2.5;stroke-linecap:round;stroke-linejoin:round;stroke-miterlimit:10;}
	.st1{fill:#FFFFFF;}
	.st2{fill:none;stroke:#FFFFFF;stroke-width:2;stroke-linecap:round;stroke-linejoin:round;stroke-miterlimit:10;}
</style>
<g>
	<path class="st1" d="M22,30.2c3.3,0,6-2.7,6-6s-2.7-6-6-6s-6,2.7-6,6S18.7,30.2,22,30.2z M22,21.6c1.4,0,2.6,1.2,2.6,2.6
		c0,1.4-1.2,2.6-2.6,2.6s-2.6-1.2-2.6-2.6C19.5,22.8,20.6,21.6,22,21.6z"/>
	<path class="st1" d="M105.8,30.2c3.3,0,6-2.7,6-6s-2.7-6-6-6s-6,2.7-6,6S102.5,30.2,105.8,30.2z M105.8,21.6c1.4,0,2.6,1.2,2.6,2.6
		c0,1.4-1.2,2.6-2.6,2.6c-1.4,0-2.6-1.2-2.6-2.6C103.2,22.8,104.4,21.6,105.8,21.6z"/>
	<path class="st1" d="M108,93.3c-3.3,0-6,2.7-6,6c0,3.3,2.7,6,6,6s6-2.7,6-6C114,96,111.3,93.3,108,93.3z M108,101.9
		c-1.4,0-2.6-1.2-2.6-2.6c0-1.4,1.2-2.6,2.6-2.6s2.6,1.2,2.6,2.6C110.5,100.8,109.4,101.9,108,101.9z"/>
	<path class="st1" d="M24.2,93.3c-3.3,0-6,2.7-6,6c0,3.3,2.7,6,6,6s6-2.7,6-6C30.2,96,27.5,93.3,24.2,93.3z M24.2,101.9
		c-1.4,0-2.6-1.2-2.6-2.6c0-1.4,1.2-2.6,2.6-2.6c1.4,0,2.6,1.2,2.6,2.6C26.8,100.8,25.6,101.9,24.2,101.9z"/>
	<path class="st1" d="M65,22.5c-3.3,0-6,2.7-6,6s2.7,6,6,6s6-2.7,6-6S68.3,22.5,65,22.5z M65,31.1c-1.4,0-2.6-1.2-2.6-2.6
		s1.2-2.6,2.6-2.6s2.6,1.2,2.6,2.6S66.4,31.1,65,31.1z"/>
	<path class="st1" d="M34.9,43.1c3.3,0,6-2.7,6-6c0-3.3-2.7-6-6-6s-6,2.7-6,6C28.9,40.4,31.6,43.1,34.9,43.1z M34.9,34.5
		c1.4,0,2.6,1.2,2.6,2.6c0,1.4-1.2,2.6-2.6,2.6c-1.4,0-2.6-1.2-2.6-2.6C32.4,35.7,33.5,34.5,34.9,34.5z"/>
	<path class="st1" d="M90.8,43.1c3.3,0,6-2.7,6-6c0-3.3-2.7-6-6-6s-6,2.7-6,6C84.8,40.4,87.5,43.1,90.8,43.1z M90.8,34.5
		c1.4,0,2.6,1.2,2.6,2.6c0,1.4-1.2,2.6-2.6,2.6s-2.6-1.2-2.6-2.6C88.2,35.7,89.4,34.5,90.8,34.5z"/>
	<path class="st1" d="M95.5,65c0,3.3,2.7,6,6,6c3.3,0,6-2.7,6-6s-2.7-6-6-6C98.2,59,95.5,61.7,95.5,65z M101.5,62.4
		c1.4,0,2.6,1.2,2.6,2.6s-1.2,2.6-2.6,2.6c-1.4,0-2.6-1.2-2.6-2.6S100.1,62.4,101.5,62.4z"/>
	<path class="st1" d="M28.5,59c-3.3,0-6,2.7-6,6s2.7,6,6,6s6-2.7,6-6S31.8,59,28.5,59z M28.5,67.6c-1.4,0-2.6-1.2-2.6-2.6
		s1.2-2.6,2.6-2.6s2.6,1.2,2.6,2.6S29.9,67.6,28.5,67.6z"/>
	<path class="st1" d="M95.1,80.5c-3.3,0-6,2.7-6,6s2.7,6,6,6s6-2.7,6-6S98.4,80.5,95.1,80.5z M95.1,89.1c-1.4,0-2.6-1.2-2.6-2.6
		s1.2-2.6,2.6-2.6s2.6,1.2,2.6,2.6S96.5,89.1,95.1,89.1z"/>
	<path class="st1" d="M39.2,80.5c-3.3,0-6,2.7-6,6s2.7,6,6,6s6-2.7,6-6S42.5,80.5,39.2,80.5z M39.2,89.1c-1.4,0-2.6-1.2-2.6-2.6
		s1.2-2.6,2.6-2.6c1.4,0,2.6,1.2,2.6,2.6S40.6,89.1,39.2,89.1z"/>
	<path class="st1" d="M120.8,56.8c-4.5,0-8.2,3.7-8.2,8.2s3.7,8.2,8.2,8.2s8.2-3.7,8.2-8.2S125.3,56.8,120.8,56.8z M120.8,69.7
		c-2.6,0-4.7-2.1-4.7-4.7s2.1-4.7,4.7-4.7s4.7,2.1,4.7,4.7S123.4,69.7,120.8,69.7z"/>
	<path class="st1" d="M9.2,73.2c4.5,0,8.2-3.7,8.2-8.2s-3.7-8.2-8.2-8.2S1,60.5,1,65S4.7,73.2,9.2,73.2z M9.2,60.3
		c2.6,0,4.7,2.1,4.7,4.7s-2.1,4.7-4.7,4.7S4.4,67.6,4.4,65S6.6,60.3,9.2,60.3z"/>
	<path class="st1" d="M65,17.3c4.5,0,8.2-3.7,8.2-8.2S69.5,1,65,1s-8.2,3.7-8.2,8.2S60.5,17.3,65,17.3z M65,4.4
		c2.6,0,4.7,2.1,4.7,4.7s-2.1,4.7-4.7,4.7s-4.7-2.1-4.7-4.7S62.4,4.4,65,4.4z"/>
	<path class="st1" d="M9.2,17.3c4.5,0,8.2-3.7,8.2-8.2S13.7,1,9.2,1S1,4.7,1,9.2S4.7,17.3,9.2,17.3z M9.2,4.4c2.6,0,4.7,2.1,4.7,4.7
		s-2.1,4.7-4.7,4.7s-4.7-2.1-4.7-4.7S6.6,4.4,9.2,4.4z"/>
	<path class="st1" d="M120.8,17.3c4.5,0,8.2-3.7,8.2-8.2S125.3,1,120.8,1s-8.2,3.7-8.2,8.2S116.3,17.3,120.8,17.3z M120.8,4.4
		c2.6,0,4.7,2.1,4.7,4.7s-2.1,4.7-4.7,4.7s-4.7-2.1-4.7-4.7S118.2,4.4,120.8,4.4z"/>
	<path class="st1" d="M120.8,106.2c-4.5,0-8.2,3.7-8.2,8.2s3.7,8.2,8.2,8.2s8.2-3.7,8.2-8.2S125.3,106.2,120.8,106.2z M120.8,119.1
		c-2.6,0-4.7-2.1-4.7-4.7s2.1-4.7,4.7-4.7s4.7,2.1,4.7,4.7S123.4,119.1,120.8,119.1z"/>
	<path class="st1" d="M9.2,106.2c-4.5,0-8.2,3.7-8.2,8.2s3.7,8.2,8.2,8.2s8.2-3.7,8.2-8.2S13.7,106.2,9.2,106.2z M9.2,119.1
		c-2.6,0-4.7-2.1-4.7-4.7s2.1-4.7,4.7-4.7s4.7,2.1,4.7,4.7S11.8,119.1,9.2,119.1z"/>
	<path class="st1" d="M74.8,91.4l-1.2-0.1l1-0.6c3.7-2.4,6.2-6.2,6.8-10.5l0-0.3l0.2-0.1c1-0.4,1.9-1,2.6-1.8c1.1-1.3,1.7-3,1.7-4.8
		c0-1.9-0.8-3.8-2.1-5.1l-0.2-0.2l0.1-0.3c0.1-0.2,0.1-0.3,0.1-0.5l0-5.1c0-8.6-5.9-13.7-15.8-13.7h-6.2c-9.9,0-15.8,5.1-15.8,13.7
		v5.2c0,0.1,0,0.3,0.1,0.5l0.1,0.3l-0.2,0.2c-1.4,1.3-2.2,3.2-2.1,5.1c-0.1,2.9,1.7,5.5,4.3,6.6l0.2,0.1l0,0.2
		c0.3,2.1,1,4.1,2.2,5.9c1.2,1.8,2.8,3.4,4.6,4.6l1,0.6l-1.2,0.1c-11.3,1.4-19.8,11-19.8,22.4v13.5c0,0.9,0.8,1.7,1.7,1.7h55.8
		c0.9,0,1.7-0.8,1.7-1.7v-13.5C94.6,102.4,86.1,92.8,74.8,91.4z M49.5,62c0-9,7.7-10.3,12.3-10.3h6.2c4.6,0,12.3,1.3,12.3,10.3v3.3
		l-0.5-0.2c-1.7-0.5-3.3-1.4-4.5-2.8l-2.9-3.2c-0.3-0.3-0.7-0.5-1.2-0.6c-0.5,0-0.9,0.1-1.2,0.4c0,0-0.1,0.1-0.1,0.1
		c-3.5,4-8.5,6.3-13.8,6.3H50h-0.4V62z M53.6,84.1c-1.1-1.7-1.8-3.7-1.8-5.8c0-1-0.8-1.7-1.7-1.7l-0.1,0c-1.9-0.5-3-2.4-2.5-4.3
		c0.2-0.6,0.5-1.2,1-1.7l-1.6,0l2.9-0.8c0.1,0,0.1,0,0.2,0l0.1,0.3l0-0.3c0.5,0,1.1-0.3,1.4-0.7l0.1-0.2h4.5c4.6,0,9-1.5,12.7-4.2
		l0.1-0.1h3.8l0.1,0.1c1.4,1.5,3.1,2.7,5,3.4l0.2,0.1l0,0.2c0.1,0.8,0.8,1.4,1.6,1.4c1.7,0.3,2.9,1.8,2.7,3.5c0,0.9-0.3,1.8-0.9,2.5
		c-0.5,0.6-1.1,0.9-1.8,0.9c-1,0-1.7,0.8-1.7,1.7c-0.2,4.4-2.7,8.3-6.7,10.2l-4,2.1c-0.8,0.4-1.6,0.5-2.4,0.5
		c-0.8,0-1.6-0.2-2.3-0.5l-4.1-2.1C56.6,87.5,54.9,86,53.6,84.1z M71.7,94.6l-1.3,15l-3.3-4.6l3.5-10.5H71.7z M66.9,94.6l-1.9,5.7
		l-1.9-5.7H66.9z M62.9,105.1l-3.3,4.6l-1.3-15h1.2L62.9,105.1z M59.2,125.6h-7.5v-13.3c0-0.9-0.8-1.7-1.7-1.7s-1.7,0.8-1.7,1.7
		v13.3h-9.4v-11.8c0-9.2,6.6-17.1,15.6-18.8l0.5-0.1l1.7,19.7c0,0.5,0.3,0.9,0.6,1.2c0.3,0.3,0.8,0.4,1.2,0.4c0.5,0,0.9-0.3,1.2-0.6
		l0.9-1.2L59.2,125.6z M62.6,125.6l1.6-12.6c0-0.4,0.2-0.7,0.4-1l0.3-0.3l0.3,0.3c0.3,0.3,0.5,0.7,0.6,1.1l1.6,12.6L62.6,125.6z
		 M91.2,125.6h-9.4v-13.3c0-0.9-0.8-1.7-1.7-1.7c-0.9,0-1.7,0.8-1.7,1.7v13.3h-7.5l-1.4-11.3l0.9,1.2c0.3,0.4,0.8,0.6,1.3,0.6
		c0.1,0,0.3,0,0.5-0.1c0.7-0.2,1.2-0.8,1.2-1.5l1.7-19.7l0.5,0.1c9,1.7,15.6,9.6,15.6,18.8V125.6z"/>
</g>
</svg>
