<?xml version="1.0" encoding="utf-8"?>
<!-- Generator: Adobe Illustrator 22.1.0, SVG Export Plug-In . SVG Version: 6.00 Build 0)  -->
<svg version="1.1" id="Layer_1" xmlns="http://www.w3.org/2000/svg" xmlns:xlink="http://www.w3.org/1999/xlink" x="0px" y="0px"
	 viewBox="0 0 130 130" style="enable-background:new 0 0 130 130;" xml:space="preserve">
<style type="text/css">
	.st0{fill:none;stroke:#FFFFFF;stroke-width:2.5;stroke-linecap:round;stroke-linejoin:round;stroke-miterlimit:10;}
	.st1{fill:#FFFFFF;}
	.st2{fill:none;stroke:#FFFFFF;stroke-width:2;stroke-linecap:round;stroke-linejoin:round;stroke-miterlimit:10;}
</style>
<g>
	<path class="st1" d="M65,66.6c6.6,0,12-5.4,12-12c0-6.6-5.4-12-12-12s-12,5.4-12,12C53,61.2,58.4,66.6,65,66.6z M65,45.8
		c4.9,0,8.8,4,8.8,8.8s-4,8.8-8.8,8.8s-8.8-4-8.8-8.8S60.1,45.8,65,45.8z"/>
	<path class="st1" d="M110.3,106.1h0.5c0.9,0,1.6-0.7,1.6-1.6V86.6l13.1-9.8c1.4-1,2.2-2.7,2.2-4.4c0-2.6-1.9-4.9-4.5-5.3
		c-1.4-0.3-2.9,0-4.1,0.8l-2.7,1.8v-44c0-0.8-0.5-1.5-1.3-1.6L91.5,20v-4.9c0-0.9-0.7-1.6-1.6-1.6h-8.8V2.6c0-0.9-0.7-1.6-1.6-1.6
		H50.4c-0.9,0-1.6,0.7-1.6,1.6v10.9H40c-0.9,0-1.6,0.7-1.6,1.6V20l-23.7,4.1c-0.8,0.1-1.3,0.8-1.3,1.6v44l-2.6-1.8
		c-1.2-0.8-2.6-1.2-4.1-0.9c-1.4,0.2-2.7,1-3.5,2.2c-1.7,2.4-1.2,5.8,1.3,7.6l13.1,9.8v17.9c0,0.9,0.7,1.6,1.6,1.6h0.5v19.7H1v3.2
		h128v-3.2h-18.7V106.1z M96.2,49.9c4.9,0,8.8,4,8.8,8.8c0,4.9-4,8.8-8.8,8.8s-8.8-4-8.8-8.8C87.4,53.9,91.3,49.9,96.2,49.9z
		 M52,4.2h26v9.3H52V4.2z M42.6,58.8c0,4.9-4,8.8-8.8,8.8s-8.8-4-8.8-8.8c0-4.9,4-8.8,8.8-8.8S42.6,53.9,42.6,58.8z M16.6,27
		l21.8-3.8v24.5l-0.7-0.2c-6.2-2.2-13.1,1.1-15.3,7.3c-2.2,6.2,1.1,13.1,7.3,15.3c6.2,2.2,13.1-1.1,15.3-7.3
		c1.6-4.6,0.3-9.7-3.3-12.9l-0.2-0.1V16.6h46.8v33.1l-0.2,0.1c-2.4,2.1-3.8,5.1-4,8.3c-0.2,3.2,0.9,6.3,3.1,8.6
		c4.4,4.9,12,5.3,16.9,0.9c2.4-2.1,3.8-5.1,4-8.3c0.2-3.2-0.9-6.3-3.1-8.6c-3.3-3.6-8.3-4.9-12.9-3.3l-0.7,0.2V23.2l21.8,3.8v44.8
		l-3.1,2H83.5l-0.2-0.2c-1.9-2.5-4.8-4-7.9-4H54.6c-3.1,0-6.1,1.5-7.9,4l-0.2,0.2H19.7l-3.1-2V27z M67.6,85.4L65,89.2l-2.6-3.8
		l1.9-12.6h1.4L67.6,85.4z M31.7,125.8l2.1-8.6l2.1,8.6H31.7z M44.7,125.8h-5.5l-3.8-15.4c-0.2-0.8-1.1-1.4-1.9-1.1
		c-0.6,0.1-1,0.6-1.1,1.1l-3.9,15.4h-5.5v-19.7h21.8V125.8z M50.9,125.8h-3.1v-19.7h3.1V125.8z M50.9,103H20.8V85.8
		c0-0.5-0.2-1-0.6-1.3L6.4,74.1c-0.6-0.4-0.9-1.1-0.9-1.8c0-0.4,0.1-0.9,0.4-1.2c0.3-0.5,0.9-0.9,1.5-1c0.6-0.1,1.2,0,1.7,0.3
		l9.3,6.2c0.3,0.2,0.6,0.3,0.9,0.3H45l-0.1,0.6c-0.1,0.7-0.2,1.3-0.2,2v14.6c0,3.6,2.4,6.7,5.9,7.5l0.4,0.1V103z M62.8,125.8
		l2.2-11.2l2.2,11.2H62.8z M75.9,125.8h-5.4l-3.9-19.5c0-1-0.7-1.7-1.6-1.7c-0.9,0-1.6,0.7-1.6,1.6l-3.9,19.6h-5.4V102h21.8V125.8z
		 M75.9,98.8H54.1V78h-3.2v20.6l-0.8-0.4c-1.4-0.8-2.3-2.4-2.3-4V79.6c0-3.7,3-6.7,6.7-6.7h6.5l-1.9,12.8c-0.1,0.4,0,0.8,0.3,1.1
		l4.2,6.2c0.2,0.3,0.6,0.6,1,0.7c0.4,0.1,0.8,0,1.2-0.2c0.2-0.1,0.3-0.3,0.4-0.4l4.2-6.2c0.2-0.3,0.3-0.7,0.3-1.1l-1.8-12.8h6.5
		c3.7,0,6.7,3,6.7,6.7v14.6c0,1.7-0.9,3.2-2.3,4l-0.8,0.4V78h-3.2V98.8z M82.1,125.8h-3.1v-19.7h3.1V125.8z M94.1,125.8l2.1-8.6
		l2.1,8.6H94.1z M107.1,125.8h-5.5l-3.8-15.4c-0.2-0.8-1.1-1.4-1.9-1.1c-0.6,0.1-1,0.6-1.1,1.1l-3.9,15.4h-5.5v-19.7h21.8V125.8z
		 M109.2,85.8V103H79.1v-1.2l0.4-0.1c3.4-0.9,5.9-4,5.9-7.5V79.6c0-0.7-0.1-1.3-0.2-2L85,77h25.8c0.3,0,0.6-0.1,0.9-0.3l9.3-6.2
		c0.5-0.3,1.1-0.5,1.7-0.3c0.6,0.1,1.1,0.5,1.5,1c0.2,0.4,0.4,0.8,0.4,1.2c0,0.7-0.3,1.4-0.9,1.8l-13.7,10.4
		C109.4,84.9,109.2,85.3,109.2,85.8z"/>
	<rect x="46.8" y="21.8" class="st1" width="3.2" height="3.2"/>
	<rect x="55.1" y="21.8" class="st1" width="3.2" height="3.2"/>
	<rect x="46.8" y="30.1" class="st1" width="3.2" height="3.2"/>
	<rect x="55.1" y="30.1" class="st1" width="3.2" height="3.2"/>
	<rect x="71.7" y="21.8" class="st1" width="3.2" height="3.2"/>
	<rect x="80.1" y="21.8" class="st1" width="3.2" height="3.2"/>
	<rect x="71.7" y="30.1" class="st1" width="3.2" height="3.2"/>
	<rect x="80.1" y="30.1" class="st1" width="3.2" height="3.2"/>
	<rect x="21.8" y="30.1" class="st1" width="3.2" height="3.2"/>
	<rect x="30.1" y="30.1" class="st1" width="3.2" height="3.2"/>
	<rect x="21.8" y="38.5" class="st1" width="3.2" height="3.2"/>
	<rect x="30.1" y="38.5" class="st1" width="3.2" height="3.2"/>
	<rect x="96.7" y="30.1" class="st1" width="3.2" height="3.2"/>
	<rect x="105" y="30.1" class="st1" width="3.2" height="3.2"/>
	<rect x="96.7" y="38.5" class="st1" width="3.2" height="3.2"/>
	<rect x="105" y="38.5" class="st1" width="3.2" height="3.2"/>
</g>
</svg>
