<?xml version="1.0" encoding="utf-8"?>
<!-- Generator: Adobe Illustrator 22.1.0, SVG Export Plug-In . SVG Version: 6.00 Build 0)  -->
<svg version="1.1" id="Layer_1" xmlns="http://www.w3.org/2000/svg" xmlns:xlink="http://www.w3.org/1999/xlink" x="0px" y="0px"
	 viewBox="0 0 130 130" style="enable-background:new 0 0 130 130;" xml:space="preserve">
<style type="text/css">
	.st0{fill:none;stroke:#FFFFFF;stroke-width:2.5;stroke-linecap:round;stroke-linejoin:round;stroke-miterlimit:10;}
	.st1{fill:#FFFFFF;}
	.st2{fill:none;stroke:#FFFFFF;stroke-width:2;stroke-linecap:round;stroke-linejoin:round;stroke-miterlimit:10;}
</style>
<g>
	<path class="st1" d="M93.6,41.3c-0.3-0.3-0.6-0.4-1-0.5c-0.2,0-0.3,0-0.5,0.1l-18.7,5.8c-0.5,0.2-0.9,0.6-1,1.1
		c-0.1,0.5,0.1,1.1,0.5,1.4l4,3.1l-0.5,0.5c-3.6,3.8-7.6,7.2-11.8,10.3l-0.9,0.6L62,52.9c-0.2-0.9-0.7-1.7-1.4-2.1l-7.3-5l-0.2-9.6
		l20.2-12c0.7-0.4,0.9-1.3,0.5-1.9l-3.5-6.7c-0.2-0.3-0.5-0.6-0.9-0.7c-0.4-0.1-0.8-0.1-1.1,0.1L49.6,26.4l1.2-2.2
		c1.2-2.1,1.4-4.5,0.8-6.8c-0.6-2.3-2.2-4.2-4.2-5.3c-2.1-1.2-4.5-1.4-6.8-0.8c-2.3,0.6-4.2,2.2-5.3,4.2c-1.7,3-1.5,6.7,0.5,9.5
		l0.6,0.9l-1.1,0.1c-2.1,0.3-4.1,1.3-5.5,2.9L13.5,47.7c-0.5,0.6-0.5,1.5,0.1,2l5.4,4.8c0.3,0.3,0.7,0.3,1.1,0.4
		c0.4,0,0.7-0.2,1-0.5l12.2-13.8L33,49.4l-7.8,29.2l-0.4,0c-2.5,0.3-4.6,0.4-6.5,0.5c-0.7,0-1.3,0.5-1.4,1.2l-2.4,16.3
		c-0.1,0.8,0.4,1.5,1.2,1.7c0.1,0,0.1,0,0.2,0c36.8-0.6,62-29.1,70.3-38.4l0.6-0.7l4.6,2.3c0.7,0.4,1.6,0.1,2-0.6
		c0.1-0.2,0.1-0.4,0.2-0.6L94,42.3C94,41.9,93.9,41.6,93.6,41.3z M38.9,15.5c1.1-1.1,2.6-1.6,4.1-1.6c0,0,0,0,0,0h0.2
		c1.6,0.1,3.1,0.7,4.2,1.9c1.1,1.2,1.7,2.7,1.6,4.3c-0.1,3.2-2.8,5.8-6,5.8h-0.2c-1.6-0.1-3.1-0.7-4.2-1.9c-1.1-1.2-1.7-2.7-1.6-4.3
		C37.1,18.1,37.8,16.6,38.9,15.5z M35.8,50.1c0-0.1,0.1-0.2,0.1-0.3l0.4-13c0-0.8-0.6-1.5-1.4-1.5c-0.5,0-0.9,0.2-1.1,0.5L19.8,51.4
		l-3.2-2.9L32,30.9c1.2-1.4,2.9-2.1,4.7-2L50,29.2c0.3,0,0.6-0.1,0.8-0.2l17.7-10.8l2.2,4.1L50.9,34.1c-0.5,0.3-0.7,0.7-0.7,1.3
		l0.2,11.2c0,0.5,0.2,0.9,0.6,1.2l8.1,5.5l2.2,12.3l-0.4,0.2c-1.1,0.7-2.2,1.4-3.4,2.1l-0.8,0.5l-2.4-10.3c-0.2-0.8-0.7-1.5-1.4-1.9
		l-8.5-5.5c-0.7-0.4-1.6-0.2-2,0.4c-0.1,0.1-0.1,0.2-0.2,0.4L34.7,77l-0.4,0.1c-1.6,0.4-3.3,0.7-5,1l-1,0.2L35.8,50.1z M54.1,69.8
		L53.7,70c-4.6,2.4-9.5,4.4-14.6,5.9L38,76.2l6.5-22.1l7.1,4.5L54.1,69.8z M90.7,57.9l-3.6-1.8c-0.6-0.3-1.3-0.2-1.7,0.3
		c-0.4,0.4-0.9,1-1.4,1.6c-7.8,8.8-31.5,35.6-65.6,37.4l-0.8,0L19.5,82l0.5,0c5.4-0.3,10.8-1,16.1-2.3c17.1-4.3,32.3-13.4,44.1-26.5
		c0.5-0.6,0.5-1.5-0.1-2l0.3-0.6L80.1,51l-3-2.4l14.1-4.4L90.7,57.9z"/>
	<path class="st1" d="M104.9,8.9c-8.9,0-16.2,7.2-16.2,16.2c0,8.9,7.3,16.2,16.2,16.2c8.9,0,16.2-7.2,16.2-16.2S113.8,8.9,104.9,8.9
		z M104.9,38.3c-7.3,0-13.3-5.9-13.3-13.3c0-7.3,6-13.3,13.3-13.3c3.6,0,7,1.5,9.4,3.9c2.4,2.4,3.9,5.7,3.9,9.4
		C118.2,32.4,112.2,38.3,104.9,38.3z"/>
	<path class="st1" d="M104.9,17.3c-4.3,0-7.8,3.5-7.8,7.7c0,4.3,3.5,7.7,7.8,7.7c4.3,0,7.7-3.5,7.7-7.7
		C112.7,20.8,109.2,17.3,104.9,17.3z M104.9,29.9c-2.7,0-4.9-2.2-4.9-4.9c0-2.7,2.2-4.8,4.9-4.8c1.3,0,2.6,0.5,3.4,1.4
		c0.9,0.9,1.4,2.1,1.4,3.4C109.8,27.7,107.6,29.9,104.9,29.9z"/>
	<rect x="25.7" y="120.3" class="st1" width="7.1" height="2.9"/>
	<rect x="0.5" y="120.3" class="st1" width="7.1" height="2.9"/>
	<rect x="15.2" y="105.6" class="st1" width="2.9" height="7.1"/>
	
		<rect x="6.3" y="109.3" transform="matrix(0.7071 -0.7072 0.7072 0.7071 -77.5101 38.5199)" class="st1" width="2.9" height="7.1"/>
	<rect x="22" y="111.4" transform="matrix(0.7071 -0.7071 0.7071 0.7071 -72.2847 51.1198)" class="st1" width="7.1" height="2.9"/>
	<path class="st1" d="M120.7,116.6c-0.1-0.1-0.1-0.1-0.2-0.2L108,105.9c-0.3-0.3-0.7-0.4-1.1-0.3c-0.4,0.1-0.7,0.2-1,0.5
		c-0.2,0.3-0.3,0.6-0.3,0.9v4.8H92.3c-0.8,0-1.5,0.7-1.5,1.5v8.4c0,0.8,0.7,1.5,1.5,1.5h13.3v4.8c0,0.8,0.6,1.5,1.4,1.5
		c0.3,0,0.7-0.1,0.9-0.3l12.6-10.5c0.3-0.3,0.5-0.6,0.5-1C121.1,117.3,121,116.9,120.7,116.6z M108.5,124.9v-3.2
		c0-0.8-0.6-1.4-1.4-1.4H93.8v-5.5H107c0.8,0,1.4-0.6,1.4-1.4v-3.2l8.9,7.4L108.5,124.9z"/>
	<path class="st1" d="M76.6,116.6c-0.1-0.1-0.1-0.1-0.2-0.2l-12.6-10.5c-0.6-0.5-1.5-0.4-2.1,0.2c-0.2,0.3-0.3,0.6-0.3,0.9v4.8H48.2
		c-0.8,0-1.5,0.7-1.5,1.5v8.4c0,0.8,0.7,1.5,1.5,1.5h13.3v4.8c0,0.6,0.3,1.1,0.8,1.3c0.2,0.1,0.4,0.1,0.6,0.1c0.3,0,0.7-0.1,0.9-0.3
		l12.6-10.5c0.3-0.3,0.5-0.6,0.5-1C77,117.3,76.9,116.9,76.6,116.6z M64.3,124.9v-3.2c0-0.8-0.7-1.4-1.5-1.4H49.6v-5.5h13.3
		c0.8,0,1.5-0.6,1.5-1.4v-3.2l8.9,7.4L64.3,124.9z"/>
	<path class="st1" d="M128.6,31.8c-3.6,12.8-16.9,20.4-29.7,17.1l0.8-2.8c6.1,1.5,12.5,0.3,17.7-3.3c9.8-6.8,12.1-20.3,5.3-30.1
		c-6.8-9.8-20.4-12.1-30.1-5.3c-4.7,3.3-7.9,8.3-8.9,14c-1,5.5,0.2,11,3.2,15.6l-2.4,1.7c-2.7-4-4.1-8.7-4.1-13.6
		c0-13.6,11-24.6,24.6-24.6c2.3,0,4.5,0.3,6.7,0.9C124.7,5.1,132.3,18.7,128.6,31.8z"/>
</g>
</svg>
