<?xml version="1.0" encoding="utf-8"?>
<!-- Generator: Adobe Illustrator 22.1.0, SVG Export Plug-In . SVG Version: 6.00 Build 0)  -->
<svg version="1.1" id="Layer_1" xmlns="http://www.w3.org/2000/svg" xmlns:xlink="http://www.w3.org/1999/xlink" x="0px" y="0px"
	 viewBox="0 0 130 130" style="enable-background:new 0 0 130 130;" xml:space="preserve">
<style type="text/css">
	.st0{fill:none;stroke:#FFFFFF;stroke-width:2.5;stroke-linecap:round;stroke-linejoin:round;stroke-miterlimit:10;}
	.st1{fill:#FFFFFF;}
	.st2{fill:none;stroke:#FFFFFF;stroke-width:2;stroke-linecap:round;stroke-linejoin:round;stroke-miterlimit:10;}
</style>
<g id="g2755">
	<g id="g2761" transform="translate(256,471.165)">
		<g id="path2763">
			<path class="st1" d="M-140.8-438c-0.4,0-0.9-0.2-1.2-0.5c-13.1-13.1-30.5-20.3-48.9-20.3c-1,0-1.7-0.8-1.7-1.7s0.8-1.7,1.7-1.7
				c19.4,0,37.7,7.6,51.4,21.3c0.7,0.7,0.7,1.8,0,2.4C-140-438.2-140.4-438-140.8-438z"/>
		</g>
	</g>
	<g id="g2765" transform="translate(148.8101,414.5898)">
		<g id="path2767">
			<path class="st1" d="M-40.3-376.6c-0.4,0-0.9-0.2-1.2-0.5c-11.4-11-26.4-17-42.3-17c-9.2,0-18.1,2-26.3,6
				c-0.9,0.4-1.9,0.1-2.3-0.8c-0.4-0.9,0-1.9,0.8-2.3c8.7-4.2,18.1-6.3,27.8-6.3c16.7,0,32.6,6.4,44.7,18c0.7,0.7,0.7,1.8,0,2.4
				C-39.4-376.7-39.9-376.6-40.3-376.6z"/>
		</g>
	</g>
	<g id="g2769" transform="translate(118.3999,397.29)">
		<g id="path2771">
			<path class="st1" d="M-100.4-314h-15.8c-1,0-1.7-0.8-1.7-1.7c0-17.2,6.7-33.3,18.8-45.5c0,0,0.1-0.1,0.1-0.1c3-3,6.4-5.7,9.9-8.1
				c0.8-0.5,1.9-0.3,2.4,0.5c0.5,0.8,0.3,1.9-0.5,2.4c-3.3,2.2-6.4,4.7-9.3,7.6c0,0-0.1,0.1-0.1,0.1c-11.1,11.1-17.4,25.8-17.9,41.4
				h12.4c0.4-12.4,5.4-23.9,14.2-32.7c4.5-4.5,9.7-8,15.5-10.4c6-2.5,12.4-3.8,18.9-3.8c11.5,0,22.7,4.1,31.5,11.6
				c0.7,0.6,0.8,1.7,0.2,2.4c-0.6,0.7-1.7,0.8-2.4,0.2c-8.2-6.9-18.6-10.7-29.3-10.7c-6.1,0-12,1.2-17.6,3.6
				c-5.4,2.3-10.2,5.5-14.4,9.7c-8.5,8.5-13.2,19.9-13.2,32C-98.6-314.7-99.4-314-100.4-314z"/>
		</g>
	</g>
	<g id="g2773" transform="translate(435.2798,362.3701)">
		<g id="path2775">
			<path class="st1" d="M-307.5-279.1h-15.8c-1,0-1.7-0.8-1.7-1.7c0-6.1-1.2-12-3.6-17.6c-1.8-4.2-4.2-8.2-7.2-11.7
				c-0.6-0.7-0.5-1.8,0.2-2.4c0.7-0.6,1.8-0.5,2.4,0.2c3.2,3.8,5.8,8,7.7,12.6c2.3,5.5,3.6,11.3,3.8,17.2h12.4
				c-0.4-15.2-6.4-29.5-17-40.5c-0.7-0.7-0.6-1.8,0-2.4c0.7-0.7,1.8-0.6,2.4,0.1c11.6,12.1,18,27.9,18,44.7
				C-305.8-279.8-306.6-279.1-307.5-279.1z"/>
		</g>
	</g>
	<g id="g2777" transform="translate(80.2842,366.0557)">
		<g id="path2779">
			<path class="st1" d="M-48.5-315.9c-0.4,0-0.9-0.2-1.2-0.5l-11.2-11.2c-0.7-0.7-0.7-1.8,0-2.4c0.7-0.7,1.8-0.7,2.4,0l11.2,11.2
				c0.7,0.7,0.7,1.8,0,2.4C-47.6-316.1-48-315.9-48.5-315.9z"/>
		</g>
	</g>
	<g id="g2781" transform="translate(256,376.209)">
		<g id="path2783">
			<path class="st1" d="M-191-339.8c-1,0-1.7-0.8-1.7-1.7v-15.8c0-1,0.8-1.7,1.7-1.7s1.7,0.8,1.7,1.7v15.8
				C-189.3-340.6-190-339.8-191-339.8z"/>
		</g>
	</g>
	<g id="g2785" transform="translate(296.3198,273.9102)">
		<g id="path2787">
			<path class="st1" d="M-202.9-210.9c-0.4,0-0.7-0.1-1-0.3c-0.8-0.6-0.9-1.6-0.4-2.4l15.3-21.1l-31.2,22.6
				c-0.8,0.6-1.8,0.4-2.4-0.4c-0.6-0.8-0.4-1.8,0.4-2.4l40-29.1c0.7-0.5,1.6-0.4,2.2,0.2c0.6,0.6,0.7,1.5,0.2,2.2l-21.7,29.9
				C-201.8-211.1-202.3-210.9-202.9-210.9z"/>
		</g>
	</g>
	<g id="g2789" transform="translate(348.02,242.29)">
		<g id="path2791">
			<path class="st1" d="M-269.5-158.7c-0.4,0-0.7-0.1-1-0.3c-0.8-0.6-0.9-1.6-0.4-2.4l9.7-13.4c0.6-0.8,1.6-0.9,2.4-0.4
				s0.9,1.6,0.4,2.4l-9.7,13.4C-268.4-159-269-158.7-269.5-158.7z"/>
		</g>
	</g>
	<g id="g2793" transform="translate(171.1465,149.9326)">
		<g id="path2795">
			<path class="st1" d="M-84.7-45.2h-42.9c-1,0-1.7-0.8-1.7-1.7v-11.2c0-6.6,5.4-11.9,11.9-11.9h22.5c6.6,0,11.9,5.4,11.9,11.9v11.2
				C-83-46-83.8-45.2-84.7-45.2z M-125.9-48.6h39.4v-9.5c0-4.7-3.8-8.5-8.5-8.5h-22.5c-4.7,0-8.5,3.8-8.5,8.5V-48.6z"/>
		</g>
	</g>
	<g id="g2797" transform="translate(298.4268,125.6895)">
		<g id="path2799">
			<path class="st1" d="M-222.7-20.9c-1,0-1.7-0.8-1.7-1.7v-5.1c0-1,0.8-1.7,1.7-1.7c1,0,1.7,0.8,1.7,1.7v5.1
				C-221-21.7-221.8-20.9-222.7-20.9z"/>
		</g>
	</g>
	<g id="g2801" transform="translate(213.5732,125.6895)">
		<g id="path2803">
			<path class="st1" d="M-159.3-20.9c-1,0-1.7-0.8-1.7-1.7v-5.1c0-1,0.8-1.7,1.7-1.7c1,0,1.7,0.8,1.7,1.7v5.1
				C-157.6-21.7-158.3-20.9-159.3-20.9z"/>
		</g>
	</g>
	<g id="g2805" transform="translate(306.5083,240.8477)">
		<g id="path2807">
			<path class="st1" d="M-241.5-157.5c-8,0-14.5-6.5-14.5-14.5s6.5-14.5,14.5-14.5c8,0,14.5,6.5,14.5,14.5S-233.5-157.5-241.5-157.5
				z M-241.5-183.1c-6.1,0-11,4.9-11,11s5,11,11,11s11-4.9,11-11S-235.4-183.1-241.5-183.1z"/>
		</g>
	</g>
	<g id="g2809" transform="translate(229.4199,73.1602)">
		<g id="path2811">
			<path class="st1" d="M-143,47.9h-42.9c-1,0-1.7-0.8-1.7-1.7V38c0-1,0.8-1.7,1.7-1.7h5.9c1,0,1.7,0.8,1.7,1.7c0,1-0.8,1.7-1.7,1.7
				h-4.2v4.7h39.4v-4.7h-26.4c-1,0-1.7-0.8-1.7-1.7c0-1,0.8-1.7,1.7-1.7h28.1c1,0,1.7,0.8,1.7,1.7v8.2
				C-141.3,47.1-142,47.9-143,47.9z"/>
		</g>
	</g>
	<g id="g2813" transform="translate(441.8696,158.9102)">
		<g id="path2815">
			<path class="st1" d="M-314.1-67.7h-15.8c-1,0-1.7-0.8-1.7-1.7c0-1,0.8-1.7,1.7-1.7h15.8c1,0,1.7,0.8,1.7,1.7
				C-312.4-68.4-313.1-67.7-314.1-67.7z"/>
		</g>
	</g>
	<g id="g2817" transform="translate(484.2969,126.585)">
		<g id="path2819">
			<path class="st1" d="M-361.6-27.2h-5.6c-1,0-1.7-0.8-1.7-1.7s0.8-1.7,1.7-1.7h5.6c1,0,1.7,0.8,1.7,1.7S-360.7-27.2-361.6-27.2z"
				/>
		</g>
	</g>
	<g id="g2821" transform="translate(70.1304,158.9102)">
		<g id="path2823">
			<path class="st1" d="M-52.1-67.7h-15.8c-1,0-1.7-0.8-1.7-1.7c0-1,0.8-1.7,1.7-1.7h15.8c1,0,1.7,0.8,1.7,1.7
				C-50.4-68.4-51.1-67.7-52.1-67.7z"/>
		</g>
	</g>
	<g id="g2825" transform="translate(27.7031,126.585)">
		<g id="path2827">
			<path class="st1" d="M-14.8-27.2h-5.6c-1,0-1.7-0.8-1.7-1.7s0.8-1.7,1.7-1.7h5.6c1,0,1.7,0.8,1.7,1.7S-13.8-27.2-14.8-27.2z"/>
		</g>
	</g>
</g>
</svg>
