<?xml version="1.0" encoding="utf-8"?>
<!-- Generator: Adobe Illustrator 22.1.0, SVG Export Plug-In . SVG Version: 6.00 Build 0)  -->
<svg version="1.1" id="Layer_1" xmlns="http://www.w3.org/2000/svg" xmlns:xlink="http://www.w3.org/1999/xlink" x="0px" y="0px"
	 viewBox="0 0 130 130" style="enable-background:new 0 0 130 130;" xml:space="preserve">
<style type="text/css">
	.st0{fill:none;stroke:#FFFFFF;stroke-width:2.5;stroke-linecap:round;stroke-linejoin:round;stroke-miterlimit:10;}
	.st1{fill:#FFFFFF;}
	.st2{fill:none;stroke:#FFFFFF;stroke-width:2;stroke-linecap:round;stroke-linejoin:round;stroke-miterlimit:10;}
</style>
<g>
	<g>
		<g>
			<path class="st1" d="M65,58.7c-0.3,0-0.6-0.1-0.8-0.2L43.5,46.6c-0.8-0.5-1.1-1.5-0.6-2.3c0.5-0.8,1.5-1.1,2.3-0.6L65,55.1
				l19.8-11.4c0.8-0.5,1.8-0.2,2.3,0.6c0.5,0.8,0.2,1.8-0.6,2.3L65.8,58.5C65.6,58.6,65.3,58.7,65,58.7z"/>
		</g>
		<g>
			<path class="st1" d="M65,82.5c-0.9,0-1.7-0.7-1.7-1.7V57c0-0.9,0.8-1.7,1.7-1.7s1.7,0.7,1.7,1.7v23.8
				C66.7,81.8,65.9,82.5,65,82.5z"/>
		</g>
		<g>
			<path class="st1" d="M65,82.5c-0.3,0-0.6-0.1-0.8-0.2L43.5,70.4c-0.5-0.3-0.8-0.9-0.8-1.5V45.1c0-0.6,0.3-1.2,0.8-1.5l20.6-11.9
				c0.5-0.3,1.2-0.3,1.7,0l20.6,11.9c0.5,0.3,0.8,0.9,0.8,1.5v23.8c0,0.6-0.3,1.2-0.8,1.5L65.8,82.3C65.6,82.5,65.3,82.5,65,82.5z
				 M46,68l19,11l19-11V46.1l-19-11l-19,11V68z M85.6,68.9L85.6,68.9L85.6,68.9z"/>
		</g>
	</g>
	<g>
		<g>
			<g>
				<path class="st1" d="M119.5,103.4h-109c-0.9,0-1.7-0.7-1.7-1.7V17.5c0-0.9,0.8-1.7,1.7-1.7s1.7,0.7,1.7,1.7v82.5h105.6V17.5
					c0-0.9,0.8-1.7,1.7-1.7s1.7,0.7,1.7,1.7v84.2C121.2,102.7,120.4,103.4,119.5,103.4z"/>
			</g>
			<g>
				<g>
					<path class="st1" d="M125.9,19.2H4.1c-0.9,0-1.7-0.7-1.7-1.7V2.2c0-0.9,0.8-1.7,1.7-1.7h121.9c0.9,0,1.7,0.7,1.7,1.7v15.3
						C127.6,18.4,126.9,19.2,125.9,19.2z M5.7,15.8h118.5v-12H5.7V15.8z"/>
				</g>
				<g>
					<path class="st1" d="M65,129.5c-0.9,0-1.7-0.7-1.7-1.7v-26.1c0-0.9,0.8-1.7,1.7-1.7s1.7,0.7,1.7,1.7v26.1
						C66.7,128.8,65.9,129.5,65,129.5z"/>
				</g>
				<g>
					<g>
						<path class="st1" d="M35.5,127.7c-0.3,0-0.6-0.1-0.9-0.3c-0.8-0.5-1-1.5-0.5-2.3l15.2-24.3c0.5-0.8,1.5-1,2.3-0.5
							c0.8,0.5,1,1.5,0.5,2.3l-15.2,24.3C36.6,127.5,36,127.7,35.5,127.7z"/>
					</g>
					<g>
						<path class="st1" d="M94.5,127.7c-0.6,0-1.1-0.3-1.4-0.8l-15.2-24.3c-0.5-0.8-0.2-1.8,0.5-2.3c0.8-0.5,1.8-0.3,2.3,0.5
							l15.2,24.3c0.5,0.8,0.2,1.8-0.5,2.3C95.1,127.6,94.8,127.7,94.5,127.7z"/>
					</g>
				</g>
			</g>
			<g>
				<path class="st1" d="M87.2,118H42.6c-0.9,0-1.7-0.7-1.7-1.7s0.8-1.7,1.7-1.7h44.6c0.9,0,1.7,0.7,1.7,1.7S88.1,118,87.2,118z"/>
			</g>
		</g>
	</g>
	<g>
		<g>
			<g>
				<path class="st1" d="M29.9,73.1h-7.7c-0.9,0-1.7-0.7-1.7-1.7s0.8-1.7,1.7-1.7h7.7c0.9,0,1.7,0.7,1.7,1.7S30.8,73.1,29.9,73.1z"
					/>
			</g>
			<g>
				<path class="st1" d="M41.2,88.3H22.2c-0.9,0-1.7-0.7-1.7-1.7s0.8-1.7,1.7-1.7h19.1c0.9,0,1.7,0.7,1.7,1.7S42.2,88.3,41.2,88.3z"
					/>
			</g>
		</g>
	</g>
	<g>
		<g>
			<g>
				<path class="st1" d="M107.4,88.3H88.3c-0.9,0-1.7-0.7-1.7-1.7s0.8-1.7,1.7-1.7h19.1c0.9,0,1.7,0.7,1.7,1.7
					S108.3,88.3,107.4,88.3z"/>
			</g>
			<g>
				<path class="st1" d="M107.4,73.1h-7.7c-0.9,0-1.7-0.7-1.7-1.7s0.8-1.7,1.7-1.7h7.7c0.9,0,1.7,0.7,1.7,1.7S108.3,73.1,107.4,73.1
					z"/>
			</g>
		</g>
	</g>
</g>
</svg>
