<?xml version="1.0" encoding="utf-8"?>
<!-- Generator: Adobe Illustrator 22.1.0, SVG Export Plug-In . SVG Version: 6.00 Build 0)  -->
<svg version="1.1" id="Layer_1" xmlns="http://www.w3.org/2000/svg" xmlns:xlink="http://www.w3.org/1999/xlink" x="0px" y="0px"
	 viewBox="0 0 130 130" style="enable-background:new 0 0 130 130;" xml:space="preserve">
<style type="text/css">
	.st0{fill:none;stroke:#FFFFFF;stroke-width:2.5;stroke-linecap:round;stroke-linejoin:round;stroke-miterlimit:10;}
	.st1{fill:#FFFFFF;}
	.st2{fill:none;stroke:#FFFFFF;stroke-width:2;stroke-linecap:round;stroke-linejoin:round;stroke-miterlimit:10;}
</style>
<g>
	<path class="st1" d="M84.2,33.4l3.1,1.8c0.7,0.4,1.7,0.1,2.2-0.6c0.2-0.4,0.3-0.8,0.2-1.2c-0.1-0.4-0.4-0.7-0.7-1l-3.1-1.8
		c-0.4-0.2-0.8-0.3-1.2-0.2c-0.4,0.1-0.7,0.4-1,0.7C83.2,32,83.5,33,84.2,33.4z"/>
	<path class="st1" d="M75.7,122.3L75.7,122.3c0.4,0.2,0.8,0.1,1.2,0c0.4-0.2,0.7-0.5,0.8-0.8c0.3-0.8-0.1-1.7-0.9-2
		c-0.2-0.1-0.4-0.1-0.6-0.1c-0.2,0-0.4,0-0.6,0.1c-0.4,0.2-0.7,0.5-0.8,0.8c-0.2,0.4-0.1,0.8,0,1.2C75,121.8,75.3,122.1,75.7,122.3z
		"/>
	<path class="st1" d="M45,30.5c-0.3,0-0.5,0.1-0.8,0.2l-3.1,1.8c-0.4,0.2-0.6,0.6-0.7,1c-0.1,0.4-0.1,0.8,0.2,1.2
		c0.4,0.7,1.4,1,2.2,0.6l3.1-1.8c0.8-0.4,1-1.4,0.6-2.2C46.1,30.8,45.5,30.5,45,30.5z"/>
	<path class="st1" d="M28.6,48.7l5.2,2l0.1,0.2c0.7,2.6,1.7,5.1,3.1,7.4l0.1,0.2l-2.3,5.1c-0.3,0.6-0.1,1.3,0.3,1.8l6.9,6.9
		c0.5,0.5,1.2,0.6,1.8,0.3l5.1-2.3l0.2,0.1c2.3,1.3,4.8,2.4,7.4,3.1l0.2,0.1l2,5.2c0.2,0.6,0.8,1,1.5,1h9.7c0.6,0,1.2-0.4,1.5-1
		l2-5.2l0.2-0.1c2.6-0.7,5.1-1.7,7.4-3.1l0.2-0.1l5.1,2.3c0.6,0.3,1.3,0.1,1.8-0.3l6.9-6.9c0.5-0.5,0.6-1.2,0.3-1.8L93,58.6l0.1-0.2
		c1.3-2.3,2.4-4.8,3.1-7.4l0.1-0.2l5.2-2c0.6-0.2,1-0.8,1-1.5v-4.9c0-0.9-0.7-1.6-1.6-1.6H83.4c-0.9,0-1.6,0.7-1.6,1.6
		c0,9.3-7.5,16.8-16.8,16.8s-16.8-7.5-16.8-16.8c0-0.9-0.7-1.6-1.6-1.6H29.1c-0.9,0-1.6,0.7-1.6,1.6v4.9
		C27.6,47.8,28,48.4,28.6,48.7z M30.7,43.9h14.3l0,0.5c1,10.2,9.6,18,19.9,18c10.3,0,18.8-7.7,19.9-18l0-0.4h14.3v2.2L94.3,48
		c-0.5,0.2-0.8,0.6-1,1.1c-0.7,3-1.9,5.9-3.5,8.5c-0.3,0.4-0.3,1-0.1,1.5l2.1,4.8l-5.3,5.3l-4.8-2.1c-0.5-0.2-1-0.2-1.5,0.1
		c-2.6,1.6-5.5,2.8-8.5,3.5c-0.5,0.1-0.9,0.5-1.1,1l-1.9,4.9h-7.5l-1.9-4.9c-0.2-0.5-0.6-0.8-1.1-1c-3-0.7-5.9-1.9-8.5-3.5
		c-0.4-0.3-1-0.3-1.5-0.1l-4.8,2.1l-5.3-5.3l2.1-4.8c0.2-0.5,0.2-1-0.1-1.5c-1.6-2.6-2.8-5.5-3.5-8.5c-0.1-0.5-0.5-0.9-1-1.1
		l-4.9-1.9V43.9z"/>
	<path class="st1" d="M41.1,8.5l3.1,1.8c0.7,0.4,1.7,0.2,2.2-0.6c0.2-0.4,0.3-0.8,0.2-1.2c-0.1-0.4-0.4-0.7-0.7-1l-3.1-1.8
		c-0.2-0.1-0.5-0.2-0.8-0.2c-0.1,0-0.3,0-0.4,0.1c-0.4,0.1-0.7,0.4-1,0.7c-0.2,0.4-0.3,0.8-0.2,1.2C40.4,8,40.7,8.3,41.1,8.5z"/>
	<path class="st1" d="M85,10.5L85,10.5c0.3,0,0.6-0.1,0.8-0.2l3.1-1.8c0.4-0.2,0.6-0.6,0.7-1c0.1-0.4,0.1-0.8-0.2-1.2
		c-0.2-0.4-0.6-0.6-1-0.7c-0.1,0-0.3-0.1-0.4-0.1c-0.3,0-0.5,0.1-0.8,0.2l-3.1,1.8c-0.8,0.4-1,1.4-0.6,2.2
		C83.9,10.2,84.5,10.5,85,10.5z"/>
	<path class="st1" d="M54.3,38.5l0,2.4c0,1.6,0.9,3,2.3,3.7l0.3,0.1v1.2c0,1.6,0.9,3,2.3,3.6l0.3,0.1v1.2c0,2.2,1.8,4.1,4.1,4.1h3.2
		c2.2,0,4.1-1.8,4.1-4.1v-1.2l0.3-0.1c1.4-0.7,2.3-2.1,2.3-3.6v-1.3l0.3-0.1c1.3-0.7,2.1-2.1,2.1-3.6v-2.4c0.4-6.3,1.9-9,3.5-11.6
		c1.3-2.3,2.7-4.7,2.7-9c0-4.5-1.8-8.8-5-11.9C73.8,2.8,69.5,1,65,1c-9.3,0-16.9,7.6-16.9,16.9c0,4.4,1.4,6.8,2.7,9
		C52.3,29.5,53.9,32.2,54.3,38.5z M67.6,50.9c0,0.5-0.4,0.9-0.9,0.9h-3.2c-0.5,0-0.9-0.4-0.9-0.9V50h5.1V50.9z M70.2,45.9
		c0,0.5-0.4,0.9-0.9,0.9h-8.3c-0.5,0-0.9-0.4-0.9-0.9V45h10.2V45.9z M72.6,40.9c0,0.5-0.4,0.9-0.9,0.9H58.3c-0.5,0-0.9-0.4-0.9-0.9
		V40h15.1V40.9z M60.8,20h-2c-1.1,0-2-0.9-2-2c0-1.1,0.9-2,2-2c1.1,0,2,0.9,2,2V20z M63.9,36.9V23.2h2.1v13.7H63.9z M65,4.2
		c7.6,0,13.7,6.2,13.7,13.7c0,3.5-1,5.2-2.3,7.4c-1.4,2.4-3.1,5.3-3.7,11.1l0,0.4h-3.5V23.2h2c2.8,0,5.1-2.3,5.1-5.1
		c0-2.8-2.3-5.1-5.1-5.1s-5.1,2.3-5.1,5.1v2h-2.1v-2c0-2.8-2.3-5.1-5.1-5.1s-5.1,2.3-5.1,5.1c0,2.8,2.3,5.1,5.1,5.1h2v13.7h-3.5
		l0-0.4c-0.6-5.8-2.3-8.7-3.7-11.1c-1.3-2.3-2.3-3.9-2.3-7.4C51.3,10.3,57.4,4.2,65,4.2z M69.2,20v-2c0-1.1,0.9-2,2-2
		c1.1,0,2,0.9,2,2c0,1.1-0.9,2-2,2H69.2z"/>
	<path class="st1" d="M38.3,22.1h3.6c0.9,0,1.6-0.7,1.6-1.6c0-0.9-0.7-1.6-1.6-1.6h-3.6c-0.9,0-1.6,0.7-1.6,1.6
		C36.7,21.4,37.4,22.1,38.3,22.1z"/>
	<path class="st1" d="M122.1,89.7c3.1-3.1,4.7-7.1,4.6-11.5l-1.2-43.5c-0.1-3.8-3.9-7.2-8-7.2l-0.1,0c-2,0-8.6,1.2-8.6,14.4
		l0.1,23.6c0,1-0.1,1.9-0.3,2.8l-0.3,1.1l-0.6-1c-0.3-0.5-0.7-0.9-1.1-1.3c-2.8-2.8-7.3-2.8-10.3-0.1c-0.1,0-0.1,0.1-0.1,0.2
		c-3.9,4.6-8.6,8.5-12.4,11.7l-0.1,0c-1.3,1.1-2.5,2.1-3.5,3c-4,3.6-4.6,8.7-4.5,13.2l0,17.8l-2.5,0c-1.2,0-2.4,0.5-3.3,1.3
		c-0.9,0.9-1.4,2-1.4,3.2l-0.1,6.6c0,1.2,0.5,2.4,1.3,3.3c0.9,0.9,2,1.4,3.2,1.4l34.2,0.3c2.5,0,4.6-2,4.6-4.5l0.1-6.6
		c0-1.2-0.5-2.4-1.3-3.3c-0.9-0.9-2-1.4-3.2-1.4l-4.4,0v-4.3L122.1,89.7z M107.3,116.4c0.5,0,0.8,0.3,1,0.4c0.2,0.2,0.4,0.5,0.4,1
		l-0.1,6.6c0,0.8-0.7,1.4-1.4,1.4L73,125.5c-0.8,0-1.4-0.7-1.4-1.4l0.1-6.6c0-0.8,0.7-1.4,1.4-1.4L107.3,116.4z M100.2,107.1
		c-0.3,0.3-0.5,0.7-0.5,1.1v5l-21-0.2l0-17.8c0-4,0.4-8.1,3.5-10.8c1-0.9,2.1-1.8,3.4-2.9l0.1-0.1c3.8-3.2,8.6-7.3,12.7-12
		c1.8-1.6,4.4-1.6,5.9,0c1.6,1.6,1.6,3.6,0.1,5.8c-2.2,2.5-4.3,4.5-6.6,6.7c-1,1-2.1,2-3.2,3.1c-0.3,0.3-0.5,0.7-0.5,1.1
		c0,0.4,0.2,0.8,0.5,1.1c0.6,0.6,1.6,0.6,2.2,0c1-1,2.1-2,3.1-3l0,0c2.3-2.3,4.5-4.4,6.8-6.9c0.6-0.7,1.2-1.4,1.7-2
		c2.4-2.9,3.5-6.1,3.5-9.7l-0.1-23.6c0-6.9,2-11.1,5.5-11.2h0.1c2.4,0,4.8,2.1,4.9,4.2l1.2,43.5c0.1,3.5-1.1,6.6-3.7,9.1
		L100.2,107.1z"/>
	<path class="st1" d="M86.5,20.5c0,0.9,0.7,1.6,1.6,1.6h3.6c0.9,0,1.6-0.7,1.6-1.6c0-0.9-0.7-1.6-1.6-1.6h-3.6
		C87.2,18.9,86.5,19.6,86.5,20.5z"/>
	<path class="st1" d="M60.2,114.3c-0.9-0.9-2-1.3-3.2-1.3l-2.5,0l0-17.8c0-4.5-0.5-9.6-4.5-13.2c-1-0.9-2.3-2-3.5-3l0,0
		c-3.8-3.2-8.5-7.2-12.4-11.7c0-0.1-0.1-0.1-0.1-0.2c-3-2.7-7.6-2.7-10.3,0.1c-0.4,0.4-0.8,0.9-1.1,1.3l-0.6,1l-0.3-1.1
		c-0.2-0.9-0.3-1.8-0.3-2.8l0.1-23.6c0-13.2-6.6-14.3-8.6-14.4l-0.1,0c-4.1,0-7.9,3.4-8,7.2L3.3,78.2c-0.1,4.4,1.5,8.3,4.6,11.5
		l19.2,19.2v4.3l-4.4,0c-1.2,0-2.4,0.5-3.2,1.4c-0.9,0.9-1.3,2-1.3,3.3l0.1,6.6c0,2.5,2.1,4.5,4.6,4.5l34.3-0.3
		c2.5,0,4.6-2.1,4.5-4.6l-0.1-6.6C61.5,116.3,61,115.1,60.2,114.3z M10.2,87.4c-2.6-2.6-3.8-5.6-3.7-9.1l1.2-43.5
		c0.1-2.1,2.4-4.2,4.9-4.2h0.1c3.5,0.1,5.5,4.2,5.5,11.2L18,65.4c0,3.6,1.1,6.7,3.5,9.7c2.8,3.5,5.6,6.1,8.5,9c1,1,2.1,2,3.1,3.1
		c0.6,0.6,1.6,0.6,2.2,0c0.6-0.6,0.6-1.6,0-2.2c-1-1-2.1-2-3-3l-0.1-0.1c-2.3-2.2-4.4-4.3-6.6-6.7c-1.6-2.2-1.6-4.2,0-5.8
		c1.6-1.6,4.1-1.6,5.9,0c4.1,4.8,8.9,8.8,12.7,12.1l0.1,0.1c1.3,1.1,2.5,2.1,3.4,2.9c3.1,2.8,3.5,6.9,3.5,10.8l0,17.8l-21,0.2v-5
		c0-0.4-0.2-0.8-0.5-1.1L10.2,87.4z M58,125.1c-0.3,0.3-0.6,0.4-1,0.4l-34.2,0.3c-0.8,0-1.4-0.6-1.4-1.4l-0.1-6.6
		c0-0.5,0.3-0.9,0.4-1c0.2-0.2,0.5-0.4,1-0.4l34.2-0.3c0.8,0,1.4,0.6,1.4,1.4l0.1,6.6C58.4,124.5,58.3,124.8,58,125.1z"/>
	<path class="st1" d="M54,119.3c-0.1,0-0.2,0-0.2,0c-0.3,0-0.6,0.1-0.9,0.3c-0.3,0.2-0.5,0.6-0.6,1c-0.1,0.8,0.5,1.6,1.3,1.8
		c0.4,0.1,0.8,0,1.1-0.3c0.3-0.2,0.6-0.6,0.6-1c0.1-0.4,0-0.8-0.3-1.1S54.4,119.4,54,119.3z"/>
</g>
</svg>
